<?xml version="1.0" encoding="utf-8"?>
<!-- Generator: Adobe Illustrator 19.1.0, SVG Export Plug-In . SVG Version: 6.00 Build 0)  -->
<svg version="1.1" xmlns="http://www.w3.org/2000/svg" xmlns:xlink="http://www.w3.org/1999/xlink" x="0px" y="0px" width="512px"
	 height="512px" viewBox="0 0 512 512" enable-background="new 0 0 512 512" xml:space="preserve">
<g id="howtoreivse">
	<g>
		<path fill="#1C8ABA" d="M490.2,132.7L371,13.5c-5.3-5.3-12.3-8.3-19.8-8.3H154.7c-15.4,0-28.2,12.7-28.2,28.1v445.5
			c0,15.4,12.9,27.4,28.2,27.4h315.6c15.4,0,28.2-12.1,28.2-27.4V152.4C498.5,145,495.4,138,490.2,132.7z M368.5,37.2l97.9,98.1h-89
			c-5.1,0-9-4-9-9.1V37.2z M479.5,478.8c0,5.1-4.1,9.4-9.2,9.4H154.7c-5.1,0-9.2-4.3-9.2-9.4V33.3c0-5.1,4.1-9.1,9.2-9.1h194.8
			v101.9c0,15.4,12.6,28.1,28,28.1h102V478.8z"/>
		<path fill="#1C8ABA" d="M188.6,112.2h126.8c3.5,0,6.3-4,6.3-9s-2.8-9-6.3-9H188.6c-3.5,0-6.3,4-6.3,9S185.1,112.2,188.6,112.2z"/>
		<path fill="#1C8ABA" d="M182.2,213.2c0,5,5.1,9,11.4,9h228.8c6.3,0,11.4-4,11.4-9s-5.1-9-11.4-9H193.7
			C187.3,204.2,182.2,208.3,182.2,213.2z"/>
		<path fill="#1C8ABA" d="M333.3,409.2H189.4c-4,0-7.2,4-7.2,9s3.2,9,7.2,9h143.9c4,0,7.2-4,7.2-9S337.3,409.2,333.3,409.2z"/>
		<path fill="#1C8ABA" d="M393.2,323.6c-21.7-18.2-54.7-15.5-64.7-14.2l16.3-16.3l-8.6-8.6l-25.7,25.7l-8.6,8.6l8.6,8.6l25.7,25.7
			l8.6-8.6L325,324.5c1.1,0.3,2.2,0.4,3.4,0.2c0.4-0.1,35.3-6.2,55.2,10.5c8.2,6.9,12.8,17,13.6,30.2c-22.2,3.5-39.2,22.8-39.2,45.9
			c0,25.6,20.9,46.5,46.5,46.5s46.5-20.9,46.5-46.5c0-23-16.8-42.1-38.7-45.8C411.3,347.5,404.9,333.4,393.2,323.6z M319.2,318.7
			l0.4-0.4c0,0.1,0,0.1,0,0.2c0,0.2,0.1,0.5,0.2,0.7L319.2,318.7z M436,411.2c0,17.4-14.1,31.5-31.5,31.5S373,428.6,373,411.2
			s14.1-31.5,31.5-31.5S436,393.9,436,411.2z"/>
		<path fill="#1C8ABA" d="M266,330.2c2.2,0,4-4,4-9s-1.8-9-4-9h-79.8c-2.2,0-4,4-4,9s1.8,9,4,9H266z"/>
		<path fill="#1C8ABA" d="M64.9,8.2H39.1c-11.3,0-20.6,8.9-20.6,20.2v25.9v25.9c0,0.3,0.1,0.6,0.1,0.9c-0.1,0.5-0.1,1.1-0.1,1.7
			v278.8c0,1,0.2,1.9,0.5,2.8L45,429c1.1,2.8,3.9,4.7,7,4.7s5.8-1.9,7-4.7l26-64.7c0.4-0.9,0.5-1.8,0.5-2.8V82.8
			c0-0.6,0-1.2-0.1-1.7c0-0.3,0.1-0.6,0.1-0.9V54.3V28.4C85.5,17.1,76.2,8.2,64.9,8.2z M33.5,360.1V90.2h11v270h-11L33.5,360.1z
			 M52,406.1l-12.4-30.9h24.9L52,406.1z M70.5,360.1l0,0.1h-11v-270h11V360.1z M70.5,72.2h-37v-10h37V72.2z M70.5,47.2h-37V28.4
			c0-3,2.6-5.2,5.6-5.2h25.9c3,0,5.6,2.2,5.6,5.2V47.2z"/>
	</g>
</g>
</svg>
